<svg width="21" height="21" viewBox="0 0 21 21" fill="none" xmlns="http://www.w3.org/2000/svg">
  <path d="M 14.4633,1.63987 C 13.6812,1.61483 12.9035,1.76656 12.1881,2.08375 11.4727,2.40095 10.8381,2.87544 10.3316,3.4719 9.82542,2.87718 9.19213,2.40378 8.47847,2.08668 7.76481,1.76958 6.98903,1.61689 6.20843,1.63987 4.61919,1.70202 3.11921,2.39093 2.0365,3.55595 0.953785,4.72098 0.37644,6.26733 0.430707,7.85686 c 0,3.10934 2.196363,5.01894 4.319513,6.86474 0.24375,0.2119 0.49009,0.4255 0.7347,0.6434 l 0.88458,0.7907 c 0.96471,0.9179 1.97609,1.7856 3.03011,2.5994 0.27888,0.1806 0.60399,0.2767 0.93629,0.2767 0.3322,0 0.6573,-0.0961 0.9362,-0.2767 1.0876,-0.8387 2.1301,-1.7343 3.1232,-2.683 l 0.7941,-0.7097 c 0.2524,-0.224 0.5082,-0.447 0.7623,-0.6667 C 17.962,12.9516 20.241,10.9748 20.241,7.85686 20.2953,6.26733 19.7179,4.72098 18.6352,3.55595 17.5525,2.39093 16.0525,1.70202 14.4633,1.63987 Z" fill="currentColor"/>
</svg>