<svg width="12" height="12" viewBox="0 0 12 12" fill="none" xmlns="http://www.w3.org/2000/svg">
<path d="M4.70271 2.56149L5.31671 1.94749C5.92353 1.34081 6.74649 1.00003 7.60456 1.00012C8.46264 1.00022 9.28553 1.34117 9.89221 1.94799C10.4989 2.5548 10.8397 3.37777 10.8396 4.23584C10.8395 5.09392 10.4985 5.91681 9.89171 6.52349L9.27821 7.13699M6.97671 9.43849L6.36271 10.0525C5.7559 10.6592 4.93293 11 4.07486 10.9999C3.21678 10.9998 2.39389 10.6588 1.78721 10.052C1.18053 9.44517 0.83975 8.62221 0.839844 7.76414C0.839938 6.90606 1.1809 6.08317 1.78771 5.47649L2.40121 4.86299" stroke="currentColor" stroke-linecap="round" stroke-linejoin="round"/>
<path d="M4.0752 7.76447L7.6042 4.23547" stroke="currentColor" stroke-linecap="round" stroke-linejoin="round"/>
</svg>
