<svg width="24" height="24" viewBox="0 0 24 24" fill="none" xmlns="http://www.w3.org/2000/svg">
  <path d="M 16.7919,1.90397 C 15.8839,1.8749 14.9809,2.05106 14.1504,2.41932 13.3198,2.78759 12.583,3.33848 11.9949,4.03097 11.4073,3.3405 10.672,2.79088 9.84347,2.42272 9.0149,2.05457 8.1142,1.87729 7.20792,1.90397 5.36279,1.97612 3.6213,2.77596 2.36426,4.12857 1.10722,5.48118 0.436916,7.27651 0.499921,9.12197 c 0,3.61003 2.549999,5.82703 5.014999,7.97003 0.283,0.246 0.569,0.494 0.853,0.747 l 1.027,0.918 c 1.12004,1.0657 2.29427,2.0731 3.51798,3.018 0.3238,0.2096 0.7013,0.3212 1.087,0.3212 0.3857,0 0.7632,-0.1116 1.087,-0.3212 1.2627,-0.9738 2.4731,-2.0136 3.626,-3.115 l 0.922,-0.824 c 0.293,-0.26 0.59,-0.519 0.885,-0.774 2.334,-2.025 4.98,-4.32 4.98,-7.94003 0.063,-1.84546 -0.6073,-3.64079 -1.8643,-4.9934 -1.2571,-1.35261 -2.9985,-2.15245 -4.8437,-2.2246 z" fill="currentColor"/>
</svg>